<svg xmlns="http://www.w3.org/2000/svg" viewBox="0 0 58 58">
    <path fill="#ef6129" d="M8 6h42v46H8z" />
    <g fill="#ebba16">
        <path d="M50 10h4v38h-4zM4 10h4v38H4z" />
    </g>
    <g fill="#efce4a">
        <path d="M54 14h4v30h-4zM0 14h4v30H0z" />
    </g>
    <path fill="#fff"
          d="M43.6 12.2a1 1 0 0 0-.8-.2l-19 3a1 1 0 0 0-.8 1v19.7a6.8 6.8 0 0
          0-4.5-1.7c-3.6 0-6.5 2.7-6.5 6s3 6 6.5 6 6.4-2.6 6.5-5.9V22.9l17-2.7
          v9.5a6.8 6.8 0 0 0-4.5-1.7c-3.6 0-6.5 2.7-6.5 6s3 6 6.5 6 6.5-2.7
          6.5-6V13a1 1 0 0 0-.4-.8z"
    />
</svg>
